<svg width="9" height="16" viewBox="0 0 9 16" fill="none" xmlns="http://www.w3.org/2000/svg">
<path d="M3.673 3.801C3.41233 4.16367 3.06667 4.55467 2.636 4.974C2.20533 5.382 1.77467 5.74467 1.344 6.062L0.493999 4.532C0.992666 4.13533 1.49133 3.69333 1.99 3.206C2.47733 2.71867 2.942 2.20867 3.384 1.676C3.81467 1.132 4.2 0.605 4.54 0.0949994C4.86867 0.605 5.254 1.132 5.696 1.676C6.138 2.20867 6.60833 2.71867 7.107 3.206C7.59433 3.69333 8.08733 4.13533 8.586 4.532L7.736 6.062C7.294 5.74467 6.86333 5.382 6.444 4.974C6.01333 4.55467 5.66767 4.16367 5.407 3.801V15.82H3.673V3.801Z" fill="white"/>
</svg>
