<svg width="24" height="24" viewBox="0 0 24 24" fill="none" xmlns="http://www.w3.org/2000/svg">
<path d="M22.8968 9.78868C20.4972 15.7967 14.598 24 10.7985 24C7.09902 24 6.59909 14.9879 4.59936 8.9799C3.5995 5.97589 2.99958 6.66912 1.09985 8.17113L0 6.55358C2.69963 3.78064 5.39925 0.661082 7.09902 0.430003C8.99875 0.198925 10.0986 1.70093 10.4985 4.82049C11.0985 8.9799 11.8984 15.4501 13.1982 15.4501C14.298 15.4501 16.8977 10.3664 17.0976 8.51775C17.2976 5.86035 15.3979 5.74481 13.6981 6.55358C16.3977 -3.49833 27.4962 -1.6497 22.8968 9.78868Z" fill="white"/>
</svg>
