<svg width="44" height="58" viewBox="0 0 44 58" fill="none" xmlns="http://www.w3.org/2000/svg">
<g clip-path="url(#clip0_49_516)">
<path d="M28.476 48.628C28.476 52.149 25.622 55 22.104 55C18.583 55 15.731 52.146 15.731 48.628C15.731 45.11 18.584 43.318 22.104 43.318C25.622 43.318 28.476 45.109 28.476 48.628Z" fill="#EFB643"/>
<path d="M28.476 48.628C28.476 52.149 25.622 55 22.104 55C18.583 55 15.731 52.146 15.731 48.628C15.731 45.11 18.584 43.318 22.104 43.318C25.622 43.318 28.476 45.109 28.476 48.628Z" stroke="#222222" stroke-width="2" stroke-miterlimit="10"/>
<path d="M24.758 5.681C24.758 7.147 23.57 8.336 22.104 8.336C20.638 8.336 19.449 7.147 19.449 5.681C19.449 4.215 20.638 3.026 22.104 3.026C23.57 3.026 24.758 4.215 24.758 5.681Z" fill="#FFF8D9"/>
<path d="M22.103 8.336C23.5693 8.336 24.758 7.14732 24.758 5.681C24.758 4.21469 23.5693 3.026 22.103 3.026C20.6367 3.026 19.448 4.21469 19.448 5.681C19.448 7.14732 20.6367 8.336 22.103 8.336Z" stroke="#222222" stroke-width="2" stroke-miterlimit="10"/>
<path d="M37.345 38.911V22.216C37.345 14.073 30.369 7.41101 21.845 7.41101C13.32 7.41101 6.345 14.073 6.345 22.216V38.911L3.867 41.618C2.023 43.634 1 46.268 1 49H42.689C42.689 46.268 41.667 43.634 39.822 41.618L37.345 38.911Z" fill="#FFF8D9"/>
<path d="M37.345 38.911V22.216C37.345 14.073 30.369 7.41101 21.845 7.41101C13.32 7.41101 6.345 14.073 6.345 22.216V38.911L3.867 41.618C2.023 43.634 1 46.268 1 49H42.689C42.689 46.268 41.667 43.634 39.822 41.618L37.345 38.911Z" stroke="#222222" stroke-width="2" stroke-miterlimit="10"/>
<path d="M6.34497 39H37.345" stroke="#222222" stroke-width="2" stroke-miterlimit="10"/>
</g>
<defs>
<clipPath id="clip0_49_516">
<rect width="43.689" height="58" fill="white"/>
</clipPath>
</defs>
</svg>
