<svg width="54" height="58" viewBox="0 0 54 58" fill="none" xmlns="http://www.w3.org/2000/svg">
<g clip-path="url(#clip0_49_502)">
<path d="M35.684 11.25C33.717 9.27996 30.499 9.27996 28.534 11.25L28.128 11.657L27.724 11.25C25.756 9.27996 22.539 9.27996 20.573 11.25C18.607 13.22 18.607 16.443 20.573 18.413L22.163 20.004C24.147 21.906 26.132 23.808 28.117 25.71C30.111 23.808 32.104 21.906 34.097 20.004L35.686 18.413C37.65 16.443 37.65 13.22 35.684 11.25Z" fill="#CE4545"/>
<path d="M35.684 11.25C33.717 9.27996 30.499 9.27996 28.534 11.25L28.128 11.657L27.724 11.25C25.756 9.27996 22.539 9.27996 20.573 11.25C18.607 13.22 18.607 16.443 20.573 18.413L22.163 20.004C24.147 21.906 26.132 23.808 28.117 25.71C30.111 23.808 32.104 21.906 34.097 20.004L35.686 18.413C37.65 16.443 37.65 13.22 35.684 11.25Z" stroke="#222222" stroke-width="2" stroke-miterlimit="10"/>
<path d="M31.121 44.188C32.471 44.176 33.642 43.549 34.161 42.546C34.546 41.805 34.572 40.858 34.205 40.134C33.434 38.619 31.44 38.893 27.676 38.016C21.163 36.498 20.095 34.507 15.705 34.838C13.478 35.006 11.893 35.658 11.352 35.897C9.185 36.854 7.771 38.209 7 39.075V51.786C9.356 51.45 11.209 51.598 12.441 51.786C17.058 52.489 19.079 54.706 24.411 54.964C25.307 55.007 25.954 54.988 26.587 54.964C35.337 54.635 42.115 50.209 51.179 43.272C51.723 42.854 52.735 42.061 52.617 41.196C52.457 40.008 50.211 39.091 48.264 39.077C46.505 39.065 44.696 39.844 41.824 41.196C41.824 41.196 39.341 42.375 36.383 43.313C29.904 45.373 23.796 43.237 23.163 43.007C23.142 42.999 23.122 42.992 23.109 42.986" fill="#FFE2CA"/>
<path d="M31.121 44.188C32.471 44.176 33.642 43.549 34.161 42.546C34.546 41.805 34.572 40.858 34.205 40.134C33.434 38.619 31.44 38.893 27.676 38.016C21.163 36.498 20.095 34.507 15.705 34.838C13.478 35.006 11.893 35.658 11.352 35.897C9.185 36.854 7.771 38.209 7 39.075V51.786C9.356 51.45 11.209 51.598 12.441 51.786C17.058 52.489 19.079 54.706 24.411 54.964C25.307 55.007 25.954 54.988 26.587 54.964C35.337 54.635 42.115 50.209 51.179 43.272C51.723 42.854 52.735 42.061 52.617 41.196C52.457 40.008 50.211 39.091 48.264 39.077C46.505 39.065 44.696 39.844 41.824 41.196C41.824 41.196 39.341 42.375 36.383 43.313C29.904 45.373 23.796 43.237 23.163 43.007C23.142 42.999 23.122 42.992 23.109 42.986" stroke="#222222" stroke-width="2.021" stroke-miterlimit="10"/>
<path d="M7 35.3719H1V54.3719H7V35.3719Z" fill="#779B6F"/>
<path d="M7 35.3719H1V54.3719H7V35.3719Z" stroke="#222222" stroke-width="2" stroke-miterlimit="10"/>
</g>
<defs>
<clipPath id="clip0_49_502">
<rect width="53.637" height="58" fill="white"/>
</clipPath>
</defs>
</svg>
