<svg width="52" height="58" viewBox="0 0 52 58" fill="none" xmlns="http://www.w3.org/2000/svg">
<path d="M51 11H21V55H51V11Z" fill="white"/>
<path d="M51 11H21V55H51V11Z" stroke="#222222" stroke-width="2" stroke-miterlimit="10"/>
<path d="M29.676 32.678H43.676" stroke="#C6C6C6" stroke-width="2" stroke-miterlimit="10"/>
<path d="M29.676 40.678H43.676" stroke="#C6C6C6" stroke-width="2" stroke-miterlimit="10"/>
<path d="M29.676 25.1379H43.676" stroke="#C6C6C6" stroke-width="2" stroke-miterlimit="10"/>
<path d="M21.985 47.889L31.199 47.945L21.985 54.914" fill="#BBBBBB"/>
<path d="M31 3H1V48H31V3Z" fill="white"/>
<path d="M31 3H1V48H31V3Z" stroke="#222222" stroke-width="2" stroke-miterlimit="10"/>
<path d="M21 55L31 48" stroke="#222222" stroke-width="2" stroke-miterlimit="10"/>
<path d="M14.314 23.364C13.984 23.576 13.622 23.743 13.225 23.864C12.83 23.985 12.412 24.046 11.971 24.046C11.378 24.046 10.828 23.941 10.321 23.732C9.815 23.523 9.379 23.239 9.012 22.88C8.645 22.521 8.358 22.099 8.149 21.615C7.94 21.131 7.836 20.614 7.836 20.064V20.042C7.836 19.492 7.94 18.973 8.149 18.485C8.358 17.998 8.649 17.572 9.023 17.209C9.397 16.846 9.838 16.56 10.344 16.351C10.849 16.142 11.399 16.038 11.994 16.038C12.588 16.038 13.137 16.142 13.643 16.351C14.149 16.56 14.586 16.844 14.953 17.204C15.319 17.563 15.607 17.985 15.816 18.469C16.025 18.953 16.13 19.47 16.13 20.02V20.042C16.13 20.452 16.071 20.845 15.954 21.219C15.836 21.593 15.668 21.938 15.447 22.253L16.239 22.924L15.162 24.123L14.314 23.364ZM11.99 22.154C12.262 22.154 12.524 22.106 12.774 22.011L11.708 21.098L12.786 19.888L13.831 20.834C13.911 20.607 13.952 20.357 13.952 20.086V20.064C13.952 19.785 13.904 19.519 13.808 19.266C13.713 19.013 13.578 18.79 13.401 18.595C13.225 18.401 13.014 18.247 12.769 18.133C12.523 18.02 12.254 17.963 11.961 17.963C11.667 17.963 11.401 18.02 11.163 18.133C10.925 18.247 10.719 18.399 10.547 18.59C10.375 18.78 10.243 19.001 10.151 19.25C10.059 19.499 10.013 19.763 10.013 20.042V20.064C10.013 20.342 10.061 20.608 10.157 20.862C10.253 21.114 10.387 21.336 10.56 21.527C10.733 21.717 10.941 21.87 11.184 21.983C11.428 22.097 11.696 22.154 11.99 22.154Z" fill="#222222"/>
<path d="M19.122 18.062H16.811V16.192H23.565V18.062H21.256V23.892H19.122V18.062Z" fill="#222222"/>
</svg>
