<svg width="76" height="63" viewBox="0 0 76 63" fill="none" xmlns="http://www.w3.org/2000/svg">
<g clip-path="url(#clip0_49_542)">
<path d="M31.8824 28.6144C32.4233 29.124 33.2647 29.1285 33.8102 28.6279C36.9955 25.7279 46.9998 16.4418 48.4098 13.0051C50.0926 8.91002 48.0539 4.26017 43.8561 2.61852C39.6584 0.976869 34.892 2.96579 33.2092 7.06091C33.1352 7.24131 33.0705 7.45328 33.0058 7.68329C32.9549 7.48485 32.8994 7.29994 32.8347 7.14209C31.2259 3.01541 26.4919 0.954319 22.2664 2.52832C18.0409 4.10232 15.9282 8.7206 17.5416 12.8428C18.8962 16.2975 28.7433 25.6783 31.8824 28.6144Z" fill="#CD4545" stroke="#272727" stroke-width="3" stroke-miterlimit="10" stroke-linecap="round" stroke-linejoin="round"/>
<path d="M56.8575 45.9993L47.0856 53.1824C46.242 53.802 45.1111 52.9713 45.4349 51.9753L49.2014 40.3997L39.3976 33.2625C38.554 32.6475 38.9872 31.3027 40.0268 31.3073L52.1288 31.3348L55.8406 19.7409C56.1598 18.7449 57.5642 18.7449 57.8834 19.7409L61.5952 31.3348L73.6972 31.3073C74.7414 31.3027 75.1746 32.6475 74.3265 33.2625L64.5227 40.3997L68.2891 51.9753C68.6129 52.9713 67.4775 53.802 66.6385 53.1824L56.8575 45.9993Z" fill="#8CC4BF" stroke="#272727" stroke-width="3" stroke-miterlimit="10" stroke-linecap="round" stroke-linejoin="round"/>
<path d="M1.2312 42.3779H1.49568C6.19238 42.3733 10.4969 37.811 10.4924 31.7662L10.4878 26.6807C10.4878 25.3634 11.8558 24.4913 13.0414 25.0604C15.0386 26.0197 16.4203 28.0714 16.4203 30.4443L16.4248 39.0824L30.6016 39.0732C32.1565 39.0732 33.4196 40.34 33.4196 41.9051C33.4196 43.4703 32.1611 44.7416 30.6061 44.7416H29.2518C30.8068 44.7416 32.0699 46.0084 32.0699 47.5736C32.0699 49.1387 30.8113 50.4101 29.2564 50.4101H27.9158C29.4707 50.4101 30.7338 51.6769 30.7338 53.242C30.7338 54.8071 29.4753 56.0785 27.9203 56.0785H26.5478C28.1027 56.0785 29.3658 57.3453 29.3658 58.9104C29.3658 60.4756 28.1073 61.747 26.5524 61.747L1.24488 61.7607L1.2312 42.3779Z" fill="#F4DCC2"/>
<path d="M1.23572 42.3688H1.50019C6.1969 42.3688 10.5015 37.8111 10.5015 31.7617V26.6761C10.5015 25.3589 11.874 24.4868 13.055 25.0559C15.0522 26.0152 16.4293 28.0669 16.4293 30.4444V39.0825H30.6061C32.161 39.0825 33.4241 40.3538 33.4241 41.919C33.4241 43.4841 32.161 44.7555 30.6061 44.7555H29.2518C30.8067 44.7555 32.0698 46.0269 32.0698 47.592C32.0698 49.1571 30.8067 50.4285 29.2518 50.4285H27.9112C29.4661 50.4285 30.7292 51.6999 30.7292 53.265C30.7292 54.8302 29.4661 56.1015 27.9112 56.1015H26.5387C28.0936 56.1015 29.3567 57.3729 29.3567 58.9381C29.3567 60.5032 28.0936 61.7746 26.5387 61.7746H1.23572" stroke="#272727" stroke-width="3" stroke-miterlimit="10" stroke-linecap="round" stroke-linejoin="round"/>
<path d="M25.3895 44.7509H30.4465" stroke="#272727" stroke-width="5.4123" stroke-miterlimit="10" stroke-linecap="round" stroke-linejoin="round"/>
<path d="M25.5446 44.7509H30.6061" stroke="#272727" stroke-width="5.4123" stroke-miterlimit="10" stroke-linecap="round" stroke-linejoin="round"/>
<path d="M24.0398 50.4193H29.0967" stroke="#272727" stroke-width="5.4123" stroke-miterlimit="10" stroke-linecap="round" stroke-linejoin="round"/>
<path d="M22.6992 56.0878H27.7562" stroke="#272727" stroke-width="5.4123" stroke-miterlimit="10" stroke-linecap="round" stroke-linejoin="round"/>
</g>
<defs>
<clipPath id="clip0_49_542">
<rect width="76" height="63" fill="white"/>
</clipPath>
</defs>
</svg>
