<svg width="91" height="91" viewBox="0 0 91 91" fill="none" xmlns="http://www.w3.org/2000/svg">
<g clip-path="url(#clip0_49_557)">
<path d="M16.1854 45.0214H6.80084C6.08828 45.0214 5.50659 45.5996 5.50659 46.3138C5.50659 47.028 6.08828 47.6062 6.80084 47.6062H16.1854C16.9028 47.6062 17.4748 47.028 17.4748 46.3138C17.4748 45.6044 16.898 45.0214 16.1854 45.0214Z" fill="#272727"/>
<path d="M10.6788 39.9828H1.29425C0.581687 39.9828 0 40.5658 0 41.2801C0 41.9943 0.581687 42.5725 1.29425 42.5725H10.6788C11.3914 42.5725 11.9682 41.9943 11.9682 41.2801C11.9682 40.5658 11.3914 39.9828 10.6788 39.9828Z" fill="#272727"/>
<path d="M77.8878 55.8079H68.5032C67.7907 55.8079 67.209 56.3861 67.209 57.1052C67.209 57.8194 67.7907 58.3976 68.5032 58.3976H77.8878C78.6003 58.3976 79.1772 57.8194 79.1772 57.1052C79.182 56.3861 78.6052 55.8079 77.8878 55.8079Z" fill="#272727"/>
<path d="M87.4807 55.8079H83.4332C82.7206 55.8079 82.1389 56.3861 82.1389 57.1052C82.1389 57.8194 82.7158 58.3976 83.4332 58.3976H87.4807C88.1933 58.3976 88.775 57.8194 88.775 57.1052C88.775 56.3861 88.1933 55.8079 87.4807 55.8079Z" fill="#272727"/>
<path d="M11.0811 68.2464C10.6545 68.2464 10.2425 68.0909 9.92255 67.8042L6.56331 64.7869C6.21915 64.4759 6.01071 64.0484 5.98647 63.5819C5.96224 63.1155 6.11735 62.6733 6.42758 62.3235L9.43781 58.9515C10.0534 58.2664 11.2023 58.2033 11.8906 58.8203L15.2498 61.8376C15.9624 62.479 16.0206 63.5819 15.3856 64.2962L12.3753 67.6682C12.0457 68.0374 11.5707 68.2464 11.0811 68.2464ZM11.0665 66.2251L13.8102 63.1495L10.7466 60.3994L8.00299 63.4702L11.0665 66.2251Z" fill="#272727"/>
<path d="M10.6709 15.588L9.32776 18.7693L12.5016 20.1155L13.8447 16.9342L10.6709 15.588Z" fill="#D3A22D"/>
<path d="M77.8972 43.5629L74.3839 47.9071L78.7179 51.4287L82.2313 47.0845L77.8972 43.5629Z" fill="#B0CC77"/>
<path d="M87.2141 40.1592L84.0596 41.5507L85.4478 44.7126L88.6024 43.3211L87.2141 40.1592Z" fill="#D3A22D"/>
<path d="M4.80992 26.1878L3.29553 27.4552L4.55996 28.9731L6.07434 27.7058L4.80992 26.1878Z" fill="#E58D8D"/>
<path d="M90.2052 33.7308L88.3994 34.5273L89.1941 36.3374L90.9999 35.5408L90.2052 33.7308Z" fill="#E58D8D"/>
<path d="M13.7833 4.15669L10.0945 7.24121L13.1718 10.9387L16.8606 7.85417L13.7833 4.15669Z" fill="#E58D8D"/>
<path d="M33.1073 6.17855L31.0488 7.89978L32.766 9.96305L34.8245 8.24182L33.1073 6.17855Z" fill="#B0CC77"/>
<path d="M68.2974 2.3562V9.62476H75.8589V17.95H68.2974V51.4998H59.979V17.95H52.4175V9.62476H59.979V2.3562H68.2974Z" fill="#B24747" stroke="#272727" stroke-width="3" stroke-miterlimit="10"/>
<path d="M16.2911 28.9791C17.2298 28.7576 18.0612 28.9018 18.7325 29.2252C19.2884 29.493 19.6951 29.8661 19.9728 30.1793H32.8185L33.2394 30.983L57.1466 76.6315L57.3673 77.0533L57.3048 77.525C56.2053 85.7799 49.8475 89.292 46.045 90.6617L46.0431 90.6627C43.9836 91.4021 41.5694 90.3193 40.9581 88.0817L40.9562 88.0758C40.8206 87.5722 40.5754 86.949 40.1388 86.234L39.9396 85.9225C39.0723 84.6197 37.7278 83.2875 35.7032 81.3512C33.7129 79.4476 31.1654 77.0488 28.0753 73.7057L28.0743 73.7047C21.6543 66.7537 21.5853 60.9184 19.7247 54.6246C19.2665 53.0746 18.449 51.1051 17.4884 48.9069C16.5434 46.7443 15.4651 44.3702 14.5548 42.1276C13.6481 39.8936 12.8577 37.6714 12.5118 35.7789C12.3388 34.832 12.2611 33.8865 12.3761 33.0221C12.4924 32.148 12.8217 31.2549 13.5519 30.5787C14.4713 29.7275 15.3819 29.1938 16.2911 28.9791Z" fill="#E1BE9F" stroke="#272727" stroke-width="3" stroke-miterlimit="10"/>
<path d="M30.1188 15.0912C31.0277 15.0164 32.0225 15.0998 32.7418 15.1879C33.1117 15.2332 33.4304 15.2824 33.6578 15.3207C33.7717 15.3399 33.8636 15.3565 33.9283 15.3685C33.9457 15.3717 33.9609 15.3758 33.9742 15.3783C36.1165 15.6084 38.3689 16.5633 40.4703 17.7611C42.6216 18.9874 44.7339 20.5348 46.5797 22.0345C48.4197 23.5296 50.0201 24.9986 51.1637 26.0961C51.9643 24.7247 53.3272 23.8308 54.7369 23.5404C55.8654 23.308 57.1127 23.4391 58.1754 24.098C59.2682 24.7755 60.0138 25.9172 60.2594 27.3959L60.3297 27.7875C61.1109 31.7755 64.022 37.9224 67.7936 42.1117L68.1735 42.5238L68.1744 42.5248L68.4147 42.7904C70.8155 45.5664 70.7587 49.2445 70.3033 52.2406C70.0638 53.8169 69.6885 55.3526 69.402 56.6078C69.1338 57.7822 68.9696 58.6194 68.9469 59.184L68.9459 59.4095V59.4115L68.9645 59.557C68.9999 59.7286 69.09 59.9804 69.2828 60.3187C69.5321 60.7562 69.9011 61.2478 70.3668 61.7719C71.2986 62.8202 72.502 63.8703 73.569 64.722H73.568C75.537 66.2873 75.9662 69.1741 74.4655 71.2299L74.4645 71.2289C69.6475 77.8352 63.3438 81.6637 59.4401 83.5599L59.4391 83.559C56.7836 84.8506 53.6149 84.0763 51.7897 81.8099L51.7877 81.808L51.3424 81.2533C45.2445 79.8377 39.9097 75.9642 35.9625 71.9926C33.9199 69.9373 32.2159 67.823 30.9371 65.9418C29.7576 64.2064 28.8825 62.5867 28.4723 61.351L28.3961 61.1088C27.2042 57.0456 26.0166 54.3071 24.566 51.1537V51.1527C23.8875 49.6834 22.1531 46.9039 20.3561 44.1947C18.5736 41.5074 16.8312 39.04 16.1979 38.2308V38.2318C15.3408 37.14 14.7135 35.5704 14.6002 34.0365C14.517 32.9091 14.7124 31.607 15.4889 30.5638C15.3591 30.3094 15.2217 30.0184 15.0924 29.6967C14.6319 28.5507 14.1928 26.8592 14.6324 25.0804C14.8739 24.0975 15.3758 23.3454 16.0416 22.8207C16.5757 22.3998 17.1613 22.1685 17.691 22.0414C17.4554 21.0957 17.4734 20.2423 17.6256 19.517C17.7537 18.9064 17.9692 18.4232 18.1598 18.0834C18.2553 17.913 18.3457 17.7761 18.4186 17.6752C18.455 17.6247 18.4878 17.5833 18.5143 17.5502C18.5275 17.5336 18.5392 17.5185 18.5494 17.5062C18.5545 17.5002 18.5589 17.4946 18.5631 17.4896C18.5653 17.4871 18.568 17.485 18.5699 17.4828C18.5709 17.4817 18.572 17.4799 18.5729 17.4789L18.5739 17.4779C18.5745 17.4772 18.5753 17.4761 19.6803 18.4418L18.5748 17.476L18.6725 17.3646L18.7906 17.2738C21.2256 15.4022 24.3364 15.8358 26.4508 16.4633C26.7248 16.5446 26.9906 16.6311 27.2457 16.7211C27.2582 16.6918 27.2708 16.6624 27.2848 16.6332C27.6169 15.9389 28.2191 15.5806 28.6832 15.3969C29.1558 15.2098 29.6678 15.1283 30.1188 15.0912Z" fill="#F6E0C9" stroke="#272727" stroke-width="3" stroke-miterlimit="10"/>
<path d="M35.5168 50.8276C35.1338 50.8276 34.7557 50.643 34.523 50.2931C27.1793 39.2686 21.692 33.5061 19.0066 31.7909C18.7206 31.6063 18.4927 31.5528 18.3328 31.5431C18.0225 31.9561 17.4699 32.131 16.961 31.9464C16.4908 31.7715 16.166 31.3585 16.1175 30.8678C16.0642 30.3381 16.3453 29.8328 16.8592 29.517C17.5717 29.0797 18.8951 28.8854 20.2911 29.7745C24.0381 32.1699 30.0974 39.3463 36.5105 48.9716C36.8789 49.5206 36.7286 50.264 36.1808 50.6333C35.9773 50.7596 35.7446 50.8276 35.5168 50.8276Z" fill="#272727"/>
<path d="M41.8669 44.3848C41.4888 44.3848 41.1155 44.205 40.8828 43.8698C40.7665 43.7046 29.2491 27.1362 19.6416 24.6388C19.0017 24.4736 18.6188 23.8176 18.7836 23.1763C18.9484 22.5349 19.6028 22.1559 20.2378 22.3163C30.7082 25.042 42.3565 41.7951 42.846 42.5045C43.2193 43.0487 43.0836 43.7969 42.5407 44.171C42.3419 44.3168 42.1044 44.3848 41.8669 44.3848Z" fill="#272727"/>
<path d="M47.4511 39.6378C46.8791 39.6378 46.5058 39.1714 46.1714 38.7487C46.0647 38.6126 45.9872 38.4571 45.9484 38.2968C43.4568 34.9102 32.4048 21.3348 23.1851 18.2592C22.5597 18.0503 22.2204 17.3701 22.4289 16.7481C22.6373 16.1213 23.3111 15.7812 23.9364 15.9902C29.8454 17.9628 36.1954 23.7253 40.4757 28.2148C42.4486 30.2798 48.6629 37.2765 48.6726 38.4134C48.6775 38.9236 48.3575 39.3852 47.8776 39.5552C47.7225 39.6135 47.582 39.6378 47.4511 39.6378Z" fill="#272727"/>
<path d="M62.284 50.3028C61.8138 50.3028 61.3679 50.0259 61.1788 49.5643C58.3916 42.7863 53.2194 31.4653 51.2126 29.9397C50.6891 29.5413 50.5824 28.793 50.9848 28.2634C51.3823 27.7386 52.1288 27.6318 52.6571 28.035C55.837 30.4498 62.6234 46.7948 63.3892 48.6508C63.6413 49.263 63.3505 49.9627 62.7397 50.2153C62.5894 50.2736 62.4392 50.3028 62.284 50.3028Z" fill="#272727"/>
</g>
<defs>
<clipPath id="clip0_49_557">
<rect width="91" height="91" fill="white"/>
</clipPath>
</defs>
</svg>
