<svg width="71" height="66" viewBox="0 0 71 66" fill="none" xmlns="http://www.w3.org/2000/svg">
<g clip-path="url(#clip0_49_532)">
<path fill-rule="evenodd" clip-rule="evenodd" d="M4.94308 56.85C2.99582 56.85 1.39807 55.25 1.39807 53.2V12.75C1.39807 10.75 2.99582 9.09998 4.94308 9.09998H66.1069C68.0542 9.09998 69.6519 10.7 69.6519 12.75V53.2C69.6519 55.2 68.0542 56.85 66.1069 56.85H4.94308Z" fill="white"/>
<path fill-rule="evenodd" clip-rule="evenodd" d="M58.7173 59.85C58.7173 62.5 56.5204 64.6 53.974 64.6H17.026C14.3798 64.6 12.2827 62.5 12.2827 59.85V6.15002C12.2827 3.55002 14.3798 1.40002 17.026 1.40002H53.974C56.5703 1.40002 58.7173 3.60002 58.7173 6.15002C58.7173 24.05 58.7173 41.95 58.7173 59.85Z" fill="white"/>
<path fill-rule="evenodd" clip-rule="evenodd" d="M35.5 45.15C35.5 45.15 23.1673 37.4 21.7693 31.25C21.5197 30.5 21.3699 29.65 21.3699 28.85C21.3699 25.85 23.0675 23.2 25.4641 21.8C26.6624 21.25 27.9606 20.85 29.3586 20.85C31.7552 20.85 34.052 22 35.5 23.75C36.9479 21.95 39.1448 20.85 41.6413 20.85C42.9894 20.85 44.2876 21.25 45.436 21.8C47.9325 23.15 49.5302 25.85 49.5302 28.85C49.5302 29.65 49.4304 30.55 49.1308 31.25C47.8326 37.4 35.5 45.15 35.5 45.15Z" fill="#CE4545"/>
<path d="M53.974 66H17.026C13.5808 66 10.8846 63.3 10.8846 59.85V51.95C10.8846 51.2 11.4838 50.6 12.2327 50.6C12.9817 50.6 13.5808 51.2 13.5808 51.95V59.85C13.5808 61.75 15.0787 63.25 16.9761 63.25H53.924C55.7714 63.25 57.3192 61.7 57.3192 59.85V20.2C57.3192 19.45 57.9184 18.85 58.6673 18.85C59.4163 18.85 60.0154 19.45 60.0154 20.2V59.85C60.1153 63.25 57.3692 66 53.974 66ZM12.2827 47.15C11.5337 47.15 10.9346 46.55 10.9346 45.8V6.15C10.8846 2.75 13.6308 0 17.026 0H53.974C57.3192 0 60.1153 2.8 60.1153 6.15V14.05C60.1153 14.8 59.5161 15.4 58.7672 15.4C58.0183 15.4 57.4191 14.8 57.4191 14.05V6.15C57.4191 4.3 55.8713 2.75 54.0239 2.75H17.0759C15.2285 2.75 13.6807 4.25 13.6807 6.15V45.8C13.6308 46.55 13.0316 47.15 12.2827 47.15Z" fill="#272727"/>
<path d="M12.2827 58.25H4.94304C2.24684 58.25 0 56 0 53.25V12.75C0 10 2.19691 7.75 4.94304 7.75H7.48945C8.2384 7.75 8.83755 8.35 8.83755 9.1C8.83755 9.85 8.2384 10.45 7.48945 10.45H4.94304C3.74473 10.45 2.74613 11.45 2.74613 12.7V53.2C2.74613 54.45 3.74473 55.45 4.94304 55.45H12.2827C13.0316 55.45 13.6308 56.05 13.6308 56.8C13.6308 57.65 13.0316 58.25 12.2827 58.25Z" fill="#272727"/>
<path d="M66.0569 58.25H63.4606C62.7116 58.25 62.1125 57.65 62.1125 56.9C62.1125 56.15 62.7116 55.55 63.4606 55.55H66.0569C67.2552 55.55 68.2538 54.55 68.2538 53.3V12.8C68.2538 11.55 67.2552 10.55 66.0569 10.55H58.7172C57.9683 10.55 57.3691 9.94998 57.3691 9.19998C57.3691 8.44998 57.9683 7.84998 58.7172 7.84998H66.0569C68.7531 7.84998 70.9999 10.1 70.9999 12.85V53.35C70.9999 56 68.803 58.25 66.0569 58.25Z" fill="#272727"/>
<path d="M35.5001 46.55C35.2504 46.55 35.0008 46.5 34.7511 46.35C33.4529 45.5 21.9192 38.05 20.4213 31.55C20.1716 30.8 19.9719 29.75 19.9719 28.85C19.9719 25.45 21.8193 22.3 24.7652 20.65C26.4628 19.85 27.9107 19.5 29.3088 19.5C31.5556 19.5 33.7525 20.35 35.4501 21.8C38.2961 19.3 42.7399 18.75 45.9853 20.65C46.6344 21.05 46.884 21.85 46.4846 22.5C46.0851 23.15 45.2863 23.4 44.6372 23C43.7385 22.5 42.6899 22.2 41.5915 22.2C39.5943 22.2 37.7968 23.05 36.4986 24.6C36.249 24.9 35.8496 25.1 35.4501 25.1C35.0507 25.1 34.6513 24.9 34.4016 24.6C33.1534 23.1 31.256 22.2 29.3088 22.2C28.3102 22.2 27.2117 22.5 26.0134 23.05C24.0162 24.2 22.6681 26.45 22.6681 28.85C22.6681 29.45 22.8179 30.2 23.0176 30.85C24.0162 35.25 31.7054 41.1 35.4501 43.55C39.1449 41.1 46.7842 35.25 47.7328 31C47.9825 30.25 48.0823 29.5 48.0823 28.9C48.0823 27.95 47.8826 27.05 47.5331 26.2C47.2335 25.5 47.583 24.7 48.282 24.4C48.9811 24.1 49.7799 24.45 50.0795 25.15C50.5788 26.35 50.8285 27.6 50.8285 28.9C50.8285 29.8 50.6787 30.85 50.3791 31.75C49.031 38.05 37.5472 45.5 36.249 46.3C35.9993 46.45 35.7497 46.55 35.5001 46.55Z" fill="#272727"/>
</g>
<defs>
<clipPath id="clip0_49_532">
<rect width="71" height="66" fill="white"/>
</clipPath>
</defs>
</svg>
