<?xml version="1.0" encoding="utf-8"?>
<!-- Generator: Adobe Illustrator 16.0.0, SVG Export Plug-In . SVG Version: 6.00 Build 0)  -->
<!DOCTYPE svg PUBLIC "-//W3C//DTD SVG 1.1//EN" "http://www.w3.org/Graphics/SVG/1.1/DTD/svg11.dtd">
<svg version="1.1" id="Layer_1" xmlns="http://www.w3.org/2000/svg" xmlns:xlink="http://www.w3.org/1999/xlink" x="0px" y="0px"
	 width="76.893px" height="74px" viewBox="0 0 76.893 74" enable-background="new 0 0 76.893 74" xml:space="preserve">
<path fill="#FFFFFF" d="M10.43,6.554c0,0-9.945-0.658-9.789,9.657c0.139,9.196-0.165,50.887-0.165,50.887s6.335-4.769,10.53-4.074"
	/>
<path fill="#CCCCCC" d="M1.634,68.637c-0.148-0.75-0.131-1.631,0.122-2.665C2.842,62.057,14.538,63,14.538,63l38.99-0.054L53.769,73
	l-46.1-0.089C7.669,72.911,2.407,72.535,1.634,68.637"/>
<polyline fill="#FFFFFF" points="9,62 9,6 54,6.242 53.994,62 "/>
<rect y="5" fill="none" width="76.892" height="69"/>
<path fill="none" stroke="#222222" stroke-width="2" stroke-miterlimit="10" d="M54,73H7.851C4.067,73,1,69.933,1,66.149V12.851
	C1,9.067,4.067,6,7.851,6H54v52.765V73z"/>
<path fill="none" stroke="#222222" stroke-width="2" stroke-miterlimit="10" d="M1.108,68.025C1.845,65.038,4.627,63,7.841,63H54"/>
<line fill="none" stroke="#222222" stroke-width="2" stroke-miterlimit="10" x1="9" y1="6" x2="9" y2="63"/>
<line fill="none" stroke="#222222" stroke-width="2" stroke-miterlimit="10" x1="54" y1="68" x2="13" y2="68"/>
<polygon fill="#999999" points="22.902,34.463 49.112,20.367 74.617,34.551 65.808,39 30.92,38.691 "/>
<path fill="#DDDDDD" d="M31.414,37.965c0,0,9.607-6.597,17.293-5.764C56.394,33.033,66,37.837,66,37.837v13.45
	c0,0-10.248-0.961-17.356,4.163c0,0-6.789-4.419-17.677-4.676L31.414,37.965z"/>
<path fill="none" stroke="#222222" stroke-width="2" stroke-miterlimit="10" d="M66,51.021l-0.472-0.02
	c-4.577-0.185-9.139,0.659-13.354,2.472l-2.827,1.361l-3.151-1.239c-4.042-1.778-8.414-2.663-12.822-2.595L32,51.021V37.676
	c0,0,2.794-1.436,2.795-1.437c5.139-2.642,10.843-4.441,16.665-3.887c3.425,0.326,6.692,1.476,9.8,2.924
	c0.284,0.133,0.568,0.267,0.852,0.405c0.339,0.165,0.675,0.334,1.009,0.507L66,37.676V51.021z"/>
<polyline fill="none" stroke="#222222" stroke-width="2" stroke-miterlimit="10" points="31.602,37.764 22.636,33.886 
	49.019,19.515 74.653,33.886 65.824,37.764 "/>
<line fill="none" stroke="#222222" stroke-width="2" stroke-miterlimit="10" x1="59" y1="25" x2="59" y2="40"/>
<path fill="#FFFFFF" d="M61,46h-4v-5c0-1.104,0.896-2,2-2s2,0.896,2,2V46z"/>
<path fill="none" stroke="#222222" stroke-width="2" stroke-miterlimit="10" d="M61,46h-4v-5c0-1.104,0.896-2,2-2s2,0.896,2,2V46z"
	/>
<rect y="5" fill="none" width="76.892" height="69"/>
</svg>
