<?xml version="1.0" encoding="utf-8"?>
<!-- Generator: Adobe Illustrator 16.0.0, SVG Export Plug-In . SVG Version: 6.00 Build 0)  -->
<!DOCTYPE svg PUBLIC "-//W3C//DTD SVG 1.1//EN" "http://www.w3.org/Graphics/SVG/1.1/DTD/svg11.dtd">
<svg version="1.1" id="Layer_1" xmlns="http://www.w3.org/2000/svg" xmlns:xlink="http://www.w3.org/1999/xlink" x="0px" y="0px"
	 width="70.904px" height="74px" viewBox="0 0 70.904 74" enable-background="new 0 0 70.904 74" xml:space="preserve">
<polygon fill="#FFFFFF" points="22.937,32.182 22.697,45.706 5.812,52.35 5.331,73.08 65.914,73.001 66.395,52.909 49.348,45.786 
	49.589,31.782 36.782,20.657 "/>
<polyline fill="none" stroke="#222222" stroke-width="2" stroke-miterlimit="10" points="65.588,54 65.588,73 49.588,73 22.122,73 
	5.588,73 5.588,54 "/>
<rect fill="none" width="70.904" height="74"/>
<polyline fill="none" stroke="#222222" stroke-width="2" stroke-miterlimit="10" points="22.588,45 22.588,31 35.588,19.952 
	48.588,31 48.588,45 "/>
<line fill="none" stroke="#222222" stroke-width="2" stroke-linejoin="round" stroke-miterlimit="10" x1="30.588" y1="5" x2="40.588" y2="5"/>
<line fill="none" stroke="#222222" stroke-width="2" stroke-miterlimit="10" x1="35.588" y1="0" x2="35.588" y2="16"/>
<rect fill="none" width="70.904" height="74"/>
<line fill="none" stroke="#222222" stroke-width="2" stroke-miterlimit="10" x1="35.588" y1="36" x2="35.588" y2="42"/>
<line fill="none" stroke="#222222" stroke-width="2" stroke-miterlimit="10" x1="22.588" y1="45" x2="22.588" y2="73"/>
<line fill="none" stroke="#222222" stroke-width="2" stroke-miterlimit="10" x1="48.588" y1="45" x2="48.588" y2="73"/>
<rect fill="none" width="70.904" height="74"/>
<polygon fill="#999999" points="35.693,21.46 18.563,33.63 15.228,29.446 35.693,14.926 55.816,29.537 52.748,33.458 "/>
<polygon fill="none" stroke="#222222" stroke-width="2" stroke-miterlimit="10" points="35.693,21.46 18.563,33.63 15.228,29.446 
	35.693,14.926 55.816,29.537 52.748,33.458 "/>
<line fill="none" stroke="#222222" stroke-width="2" stroke-miterlimit="10" x1="22.458" y1="45.374" x2="0.446" y2="56.353"/>
<line fill="none" stroke="#222222" stroke-width="2" stroke-miterlimit="10" x1="48.446" y1="45.374" x2="70.458" y2="56.353"/>
<path fill="#CCCCCC" d="M30.588,72V60c0-2.75,2.25-5,5-5c2.75,0,5,2.25,5,5v12"/>
<path fill="none" stroke="#222222" stroke-width="2" stroke-miterlimit="10" d="M30.588,72V60c0-2.75,2.25-5,5-5c2.75,0,5,2.25,5,5
	v12"/>
<rect fill="none" width="70.904" height="74"/>
</svg>
