<?xml version="1.0" encoding="utf-8"?>
<!-- Generator: Adobe Illustrator 16.0.0, SVG Export Plug-In . SVG Version: 6.00 Build 0)  -->
<!DOCTYPE svg PUBLIC "-//W3C//DTD SVG 1.1//EN" "http://www.w3.org/Graphics/SVG/1.1/DTD/svg11.dtd">
<svg version="1.1" id="Layer_1" xmlns="http://www.w3.org/2000/svg" xmlns:xlink="http://www.w3.org/1999/xlink" x="0px" y="0px"
	 width="73.049px" height="74px" viewBox="0 0 73.049 74" enable-background="new 0 0 73.049 74" xml:space="preserve">
<polygon fill="#FFFFFF" points="53,16.889 53,73 1,73 1,5 40.193,5 "/>
<polygon fill="none" stroke="#222222" stroke-width="2" stroke-miterlimit="10" points="53,16.889 53,73 1,73 1,5 40.193,5 "/>
<rect y="4" fill="none" width="73.049" height="70"/>
<polygon fill="#CCCCCC" points="39.992,65.165 33.819,67.932 35.287,61.441 66.94,21.453 71.645,25.176 "/>
<polygon fill="#999999" points="61.832,27.906 66.584,31.57 71.619,25.209 71.644,25.176 70.837,24.538 66.798,21.632 "/>
<polygon fill="none" stroke="#222222" stroke-width="2" stroke-miterlimit="10" points="39.992,65.165 33.819,67.932 35.287,61.441 
	66.94,21.453 71.645,25.176 "/>
<rect y="4" fill="none" width="73.049" height="70"/>
<polyline fill="none" stroke="#222222" stroke-width="2" stroke-miterlimit="10" points="61.975,27.726 69.815,33.933 
	58.645,48.046 "/>
<polyline fill="none" stroke="#222222" stroke-width="2" stroke-miterlimit="10" points="52,17 40,17 40,5 "/>
<rect y="4" fill="none" width="73.049" height="70"/>
<rect x="13" y="23" fill="#FFFFFF" width="6" height="6"/>
<rect x="13" y="23" fill="none" stroke="#222222" stroke-width="2" stroke-miterlimit="10" width="6" height="6"/>
<path fill="none" stroke="#222222" stroke-width="2" stroke-miterlimit="10" d="M24,23h17H24z"/>
<path fill="none" stroke="#222222" stroke-width="2" stroke-miterlimit="10" d="M24,29h17H24z"/>
<rect x="13" y="37" fill="#FFFFFF" width="6" height="6"/>
<rect x="13" y="37" fill="none" stroke="#222222" stroke-width="2" stroke-miterlimit="10" width="6" height="6"/>
<path fill="none" stroke="#222222" stroke-width="2" stroke-miterlimit="10" d="M24,37h17H24z"/>
<path fill="none" stroke="#222222" stroke-width="2" stroke-miterlimit="10" d="M24,43h17H24z"/>
</svg>
