<?xml version="1.0" encoding="utf-8"?>
<!-- Generator: Adobe Illustrator 16.0.0, SVG Export Plug-In . SVG Version: 6.00 Build 0)  -->
<!DOCTYPE svg PUBLIC "-//W3C//DTD SVG 1.1//EN" "http://www.w3.org/Graphics/SVG/1.1/DTD/svg11.dtd">
<svg version="1.1" id="Layer_1" xmlns="http://www.w3.org/2000/svg" xmlns:xlink="http://www.w3.org/1999/xlink" x="0px" y="0px"
	 width="74px" height="74px" viewBox="0 0 74 74" enable-background="new 0 0 74 74" xml:space="preserve">
<path fill="#DDDDDD" d="M73,53.5c0,7.456-4.253,13.5-9.5,13.5S54,60.956,54,53.5S58.253,40,63.5,40S73,46.044,73,53.5"/>
<ellipse fill="none" stroke="#222222" stroke-width="2" stroke-miterlimit="10" cx="63.5" cy="53.5" rx="9.5" ry="13.5"/>
<line fill="none" stroke="#222222" stroke-width="2" stroke-miterlimit="10" x1="63" y1="61" x2="63" y2="74"/>
<path fill="#AAAAAA" d="M20,53.5c0,7.456-4.253,13.5-9.5,13.5S1,60.956,1,53.5S5.253,40,10.5,40S20,46.044,20,53.5"/>
<ellipse fill="none" stroke="#222222" stroke-width="2" stroke-miterlimit="10" cx="10.5" cy="53.5" rx="9.5" ry="13.5"/>
<line fill="none" stroke="#222222" stroke-width="2" stroke-miterlimit="10" x1="10" y1="61" x2="10" y2="74"/>
<path fill="#FFFFFF" d="M22.97,59.015c-3.114-1.226-6.402-3.192-7.935-6.041c-1.826-3.392-1.288-7.343,0.072-10.792
	c0.258-0.652,0.545-1.293,0.856-1.924c0.368-0.87-6.293-13.529,7.773-19.041c0,0-1.851-15.533,12.955-15.533
	s12.955,14.531,12.955,14.531s14.676,5.809,7.589,18.707c-0.054,0.097,0.361,0.806,0.404,0.908c0.335,0.807,0.623,1.631,0.869,2.464
	c1.064,3.598,1.377,7.634-0.326,11.104c-1.734,3.534-5.604,5.566-9.417,6.561c-4.409,1.147-9.229,1.303-13.777,1.206
	c-3.703-0.079-7.528-0.554-11.051-1.79C23.618,59.263,23.295,59.143,22.97,59.015"/>
<path fill="none" stroke="#222222" stroke-width="2" stroke-miterlimit="10" d="M22.97,59.015c-3.114-1.226-6.402-3.192-7.935-6.041
	c-1.826-3.392-1.288-7.343,0.072-10.792c0.258-0.652,0.545-1.293,0.856-1.924c0.368-0.87-6.293-13.529,7.773-19.041
	c0,0-1.851-15.533,12.955-15.533s12.955,14.531,12.955,14.531s14.676,5.809,7.589,18.707c-0.054,0.097,0.361,0.806,0.404,0.908
	c0.335,0.807,0.623,1.631,0.869,2.464c1.064,3.598,1.377,7.634-0.326,11.104c-1.734,3.534-5.604,5.566-9.417,6.561
	c-4.409,1.147-9.229,1.303-13.777,1.206c-3.703-0.079-7.528-0.554-11.051-1.79C23.618,59.263,23.295,59.143,22.97,59.015z"/>
<path fill="none" stroke="#222222" stroke-width="2" stroke-miterlimit="10" d="M51.104,20.922c0,0-3.263-1.858-6.869,0.492"/>
<path fill="#FFFFFF" d="M15.012,42.45c0,0,1.506-5.684,7.408-6.211"/>
<path fill="none" stroke="#222222" stroke-width="2" stroke-miterlimit="10" d="M15.012,42.45c0,0,1.506-5.684,7.408-6.211"/>
<polyline fill="none" stroke="#222222" stroke-width="2" stroke-miterlimit="10" points="37,35 37,42.872 37,74 "/>
<line fill="none" stroke="#222222" stroke-width="2" stroke-miterlimit="10" x1="36.869" y1="52.364" x2="42.228" y2="46.853"/>
<line fill="none" stroke="#222222" stroke-width="2" stroke-miterlimit="10" x1="31.869" y1="39.65" x2="36.827" y2="45.215"/>
<rect y="4.683" fill="none" width="74" height="69.317"/>
</svg>
