<?xml version="1.0" encoding="utf-8"?>
<!-- Generator: Adobe Illustrator 16.0.0, SVG Export Plug-In . SVG Version: 6.00 Build 0)  -->
<!DOCTYPE svg PUBLIC "-//W3C//DTD SVG 1.1//EN" "http://www.w3.org/Graphics/SVG/1.1/DTD/svg11.dtd">
<svg version="1.1" id="Layer_1" xmlns="http://www.w3.org/2000/svg" xmlns:xlink="http://www.w3.org/1999/xlink" x="0px" y="0px"
	 width="53.637px" height="58px" viewBox="0 0 53.637 58" enable-background="new 0 0 53.637 58" xml:space="preserve">
<rect x="0" y="8.773" fill="none" width="53.635" height="47.227"/>
<path fill="#CE4545" d="M35.684,11.25L35.684,11.25c-1.967-1.97-5.185-1.97-7.15,0l-0.406,0.407l-0.404-0.407
	c-1.968-1.97-5.185-1.97-7.151,0c-1.966,1.97-1.966,5.193,0,7.163l1.59,1.591c1.984,1.902,3.969,3.804,5.954,5.706
	c1.994-1.902,3.987-3.804,5.98-5.706l1.589-1.591C37.65,16.443,37.65,13.22,35.684,11.25"/>
<rect x="0" y="8.773" fill="none" width="53.635" height="47.227"/>
<path fill="none" stroke="#222222" stroke-width="2" stroke-miterlimit="10" d="M35.684,11.25L35.684,11.25
	c-1.967-1.97-5.185-1.97-7.15,0l-0.406,0.407l-0.404-0.407c-1.968-1.97-5.185-1.97-7.151,0c-1.966,1.97-1.966,5.193,0,7.163
	l1.59,1.591c1.984,1.902,3.969,3.804,5.954,5.706c1.994-1.902,3.987-3.804,5.98-5.706l1.589-1.591
	C37.65,16.443,37.65,13.22,35.684,11.25z"/>
<rect x="0" y="8.773" fill="none" width="53.635" height="47.227"/>
<path fill="#FFE2CA" d="M31.121,44.188c1.35-0.012,2.521-0.639,3.04-1.642c0.385-0.741,0.411-1.688,0.044-2.412
	c-0.771-1.515-2.765-1.241-6.529-2.118c-6.513-1.518-7.581-3.509-11.971-3.178c-2.227,0.168-3.812,0.82-4.353,1.059
	C9.185,36.854,7.771,38.209,7,39.075v12.711c2.356-0.336,4.209-0.188,5.441,0c4.617,0.703,6.638,2.92,11.97,3.178
	c0.896,0.043,1.543,0.024,2.176,0c8.75-0.329,15.528-4.755,24.592-11.692c0.544-0.418,1.556-1.211,1.438-2.076
	c-0.16-1.188-2.406-2.105-4.353-2.119c-1.759-0.012-3.568,0.767-6.44,2.119c0,0-2.483,1.179-5.441,2.117
	c-6.479,2.06-12.587-0.076-13.22-0.306c-0.021-0.008-0.041-0.015-0.054-0.021"/>
<rect x="0" y="8.773" fill="none" width="53.635" height="47.227"/>
<path fill="none" stroke="#222222" stroke-width="2.021" stroke-miterlimit="10" d="M31.121,44.188
	c1.35-0.012,2.521-0.639,3.04-1.642c0.385-0.741,0.411-1.688,0.044-2.412c-0.771-1.515-2.765-1.241-6.529-2.118
	c-6.513-1.518-7.581-3.509-11.971-3.178c-2.227,0.168-3.812,0.82-4.353,1.059C9.185,36.854,7.771,38.209,7,39.075v12.711
	c2.356-0.336,4.209-0.188,5.441,0c4.617,0.703,6.638,2.92,11.97,3.178c0.896,0.043,1.543,0.024,2.176,0
	c8.75-0.329,15.528-4.755,24.592-11.692c0.544-0.418,1.556-1.211,1.438-2.076c-0.16-1.188-2.406-2.105-4.353-2.119
	c-1.759-0.012-3.568,0.767-6.44,2.119c0,0-2.483,1.179-5.441,2.117c-6.479,2.06-12.587-0.076-13.22-0.306
	c-0.021-0.008-0.041-0.015-0.054-0.021"/>
<rect x="0" y="8.773" fill="none" width="53.635" height="47.227"/>
<rect x="1" y="35.372" fill="#779B6F" width="6" height="19"/>
<rect x="0" y="8.773" fill="none" width="53.635" height="47.227"/>
<rect x="1" y="35.372" fill="none" stroke="#222222" stroke-width="2" stroke-miterlimit="10" width="6" height="19"/>
</svg>
