<?xml version="1.0" encoding="utf-8"?>
<!-- Generator: Adobe Illustrator 16.0.0, SVG Export Plug-In . SVG Version: 6.00 Build 0)  -->
<!DOCTYPE svg PUBLIC "-//W3C//DTD SVG 1.1//EN" "http://www.w3.org/Graphics/SVG/1.1/DTD/svg11.dtd">
<svg version="1.1" id="Layer_1" xmlns="http://www.w3.org/2000/svg" xmlns:xlink="http://www.w3.org/1999/xlink" x="0px" y="0px"
	 width="66.815px" height="55.147px" viewBox="0 0 66.815 55.147" enable-background="new 0 0 66.815 55.147" xml:space="preserve">
<polygon fill="#FFFFFF" points="14.143,36.495 1.813,42.399 1,55.146 50.001,55.146 49.082,42.677 34.335,36.318 "/>
<polyline fill="#FFE1C9" points="19,24.147 19,42.666 31.964,43.071 30.6,22.673 "/>
<path fill="none" stroke="#222222" stroke-width="2" stroke-miterlimit="10" d="M50,55.147v-9.103c0-2.223-1.331-4.23-3.378-5.096
	l-9.41-3.979"/>
<path fill="none" stroke="#222222" stroke-width="2" stroke-miterlimit="10" d="M13.788,36.97l-9.41,3.979
	C2.33,41.815,1,43.822,1,46.044v9.103"/>
<polygon fill="#FFFFFF" points="18.078,32.737 25.346,43.087 19.968,46.444 13.136,36.97 "/>
<polygon fill="none" stroke="#222222" stroke-width="2" stroke-miterlimit="10" points="18.078,32.737 25.346,43.087 19.968,46.444 
	13.136,36.97 "/>
<polygon fill="#FFFFFF" points="32.469,32.737 25.201,43.087 30.58,46.444 37.411,36.97 "/>
<polygon fill="none" stroke="#222222" stroke-width="2" stroke-miterlimit="10" points="32.469,32.737 25.201,43.087 30.58,46.444 
	37.411,36.97 "/>
<line fill="none" stroke="#222222" stroke-width="2" stroke-miterlimit="10" x1="36" y1="50.147" x2="43" y2="50.147"/>
<path fill="#FFE1C9" d="M25.135,30.241L25.135,30.241c-5.719,0-10.397-4.679-10.397-10.396v-8.447C14.738,5.679,19.416,1,25.135,1
	c5.719,0,10.397,4.679,10.397,10.397v8.447C35.532,25.562,30.854,30.241,25.135,30.241"/>
<path fill="none" stroke="#222222" stroke-width="2" stroke-miterlimit="10" d="M25.135,30.241L25.135,30.241
	c-5.719,0-10.397-4.679-10.397-10.396v-8.447C14.738,5.679,19.416,1,25.135,1c5.719,0,10.397,4.679,10.397,10.397v8.447
	C35.532,25.562,30.854,30.241,25.135,30.241z"/>
<line fill="none" stroke="#222222" stroke-width="2" stroke-miterlimit="10" x1="18.589" y1="28.076" x2="18.589" y2="33.416"/>
<line fill="none" stroke="#222222" stroke-width="2" stroke-miterlimit="10" x1="31.546" y1="28.076" x2="31.546" y2="34.416"/>
<path fill="#444444" d="M36.313,15.527v-4.275c0-5.558-4.546-10.105-10.103-10.105h-1.796c-5.556,0-10.102,4.547-10.102,10.105
	v4.486c0,0,9.968,0.189,14.716-4.964C29.028,10.774,30.986,15.106,36.313,15.527"/>
<path fill="none" stroke="#222222" stroke-width="2" stroke-miterlimit="10" d="M36.313,15.527v-4.275
	c0-5.558-4.546-10.105-10.103-10.105h-1.796c-5.556,0-10.102,4.547-10.102,10.105v4.486c0,0,9.968,0.189,14.716-4.964
	C29.028,10.774,30.986,15.106,36.313,15.527z"/>
<polygon fill="#DDDDDD" points="65.815,12.004 42.815,12.004 42.815,26.004 47.94,26.004 46.315,31.003 54.857,26.004 
	65.815,26.004 "/>
<polygon fill="none" stroke="#202020" stroke-width="2" stroke-miterlimit="10" points="65.815,12.004 42.815,12.004 42.815,26.004 
	47.94,26.004 46.315,31.003 54.857,26.004 65.815,26.004 "/>
<line fill="none" stroke="#202020" stroke-width="2" stroke-miterlimit="10" x1="49.815" y1="17.004" x2="58.815" y2="17.004"/>
<line fill="none" stroke="#202020" stroke-width="2" stroke-miterlimit="10" x1="49.815" y1="21.004" x2="58.815" y2="21.004"/>
<rect fill="none" width="66.816" height="55.147"/>
</svg>
