<?xml version="1.0" encoding="utf-8"?>
<!-- Generator: Adobe Illustrator 24.0.1, SVG Export Plug-In . SVG Version: 6.00 Build 0)  -->
<svg version="1.1" id="_x3C_레이어_x3E_" xmlns="http://www.w3.org/2000/svg" xmlns:xlink="http://www.w3.org/1999/xlink"
	 x="0px" y="0px" width="128.2px" height="34.9px" viewBox="0 0 128.2 34.9" enable-background="new 0 0 128.2 34.9"
	 xml:space="preserve">
<path fill="#00A8DE" d="M68,28.6c0-0.1,0-0.1,0-0.2c0-0.1,0-0.1,0-0.2h0c0,0.1,0,0.1-0.1,0.2c0,0.1,0,0.1-0.1,0.2l-0.4,0.8h-0.8
	l-0.4-0.8c0-0.1-0.1-0.1-0.1-0.2c0-0.1,0-0.1,0-0.2h0c0,0.1,0,0.2,0,0.2c0,0.1,0,0.1,0,0.2L66,29.4h-0.9l0.3-1.9h1.1l0.3,0.7
	c0,0.1,0.1,0.1,0.1,0.2c0,0.1,0,0.1,0.1,0.2h0c0-0.1,0-0.1,0-0.2c0-0.1,0-0.1,0.1-0.2l0.4-0.7h1.1l0.3,1.9h-0.9L68,28.6z"/>
<path fill="#00A8DE" d="M71.1,29h-0.8l-0.2,0.4h-1l1.2-1.9h1l1.1,1.9h-1L71.1,29z M70.8,28.2c0,0,0-0.1,0-0.1
	C70.7,28.1,70.7,28.1,70.8,28.2c-0.1,0-0.1,0.1-0.1,0.2l-0.1,0.3H71l-0.2-0.3C70.8,28.3,70.8,28.2,70.8,28.2z"/>
<path fill="#00A8DE" d="M73.7,28.7c0,0-0.1-0.1-0.1-0.2c-0.1-0.1-0.1-0.1-0.1-0.2c0,0,0,0.1,0,0.2c0,0.1,0,0.2,0,0.3v0.5h-0.9v-1.9
	h0.9l0.6,0.6c0.1,0,0.1,0.1,0.2,0.2c0.1,0.1,0.1,0.1,0.1,0.2c0,0,0-0.1,0-0.1c0-0.1,0-0.1,0-0.2v-0.7h0.9v1.9h-0.9L73.7,28.7z"/>
<path fill="#00A8DE" d="M77,28.7c0,0-0.1-0.1-0.1-0.2c-0.1-0.1-0.1-0.1-0.1-0.2c0,0,0,0.1,0,0.2c0,0.1,0,0.2,0,0.3v0.5h-0.9v-1.9
	h0.9l0.6,0.6c0.1,0,0.1,0.1,0.2,0.2c0.1,0.1,0.1,0.1,0.1,0.2c0,0,0-0.1,0-0.1c0-0.1,0-0.1,0-0.2v-0.7h0.9v1.9h-0.9L77,28.7z"/>
<path fill="#00A8DE" d="M80.8,29h-0.8l-0.2,0.4h-1l1.1-1.9h1l1.1,1.9h-1L80.8,29z M80.4,28.2c0,0,0-0.1,0-0.1
	C80.4,28.1,80.4,28.1,80.4,28.2c-0.1,0-0.1,0.1-0.1,0.2l-0.1,0.3h0.5l-0.2-0.3C80.4,28.3,80.4,28.2,80.4,28.2z"/>
<path fill="#232222" d="M86.4,29.4L86.2,28c0,0,0-0.1,0-0.1c0,0,0-0.1,0-0.1c0,0,0-0.1,0-0.1c0,0,0,0,0,0c0,0,0,0.1-0.1,0.1
	c0,0,0,0.1-0.1,0.1l-0.8,1.4h-0.4l-0.7-1.3c-0.1-0.1-0.1-0.2-0.2-0.4c0,0.1,0,0.1,0,0.1c0,0,0,0.1,0,0.1c0,0,0,0.1,0,0.1l-0.2,1.3
	h-0.4l0.3-1.9h0.6l0.6,1.2c0,0.1,0.1,0.2,0.1,0.3c0,0,0-0.1,0-0.1c0,0,0-0.1,0-0.1c0,0,0-0.1,0.1-0.1l0.7-1.2h0.6l0.3,1.9H86.4z"/>
<path fill="#232222" d="M87.6,29.4v-1.9h1.9l-0.1,0.2H88v0.6h1.2v0.2H88v0.7h1.5v0.2H87.6z"/>
<path fill="#232222" d="M92.2,27.7h-1v1.7h-0.4v-1.7h-0.9v-0.2h2.3L92.2,27.7z"/>
<path fill="#232222" d="M94.5,29.4v-0.9H93v0.9h-0.4v-1.9H93v0.8h1.5v-0.8h0.4v1.9H94.5z"/>
<path fill="#232222" d="M98.5,28.5c0,0.2,0,0.3-0.1,0.4c-0.1,0.1-0.2,0.2-0.4,0.3c-0.1,0.1-0.3,0.1-0.4,0.1c-0.1,0-0.3,0-0.5,0
	c-0.2,0-0.4,0-0.6-0.1c-0.2,0-0.3-0.1-0.4-0.2c-0.3-0.2-0.4-0.4-0.4-0.7c0-0.1,0-0.3,0.1-0.4c0.1-0.1,0.2-0.2,0.3-0.3
	c0.1-0.1,0.3-0.1,0.4-0.2c0.2,0,0.4-0.1,0.6-0.1c0.2,0,0.3,0,0.4,0c0.1,0,0.2,0,0.3,0.1c0.1,0,0.2,0.1,0.2,0.1
	c0.1,0,0.1,0.1,0.2,0.1c0.1,0.1,0.2,0.2,0.2,0.3C98.4,28.2,98.5,28.3,98.5,28.5z M98,28.5c0-0.1,0-0.3,0-0.3c0-0.1-0.1-0.2-0.1-0.2
	c-0.1-0.1-0.2-0.1-0.3-0.2c-0.1-0.1-0.3-0.1-0.5-0.1c-0.2,0-0.3,0-0.5,0.1c-0.1,0-0.2,0.1-0.3,0.2c-0.1,0.1-0.1,0.1-0.1,0.2
	c0,0.1,0,0.2,0,0.3c0,0.1,0,0.3,0.1,0.4c0,0.1,0.1,0.2,0.2,0.3c0,0,0.1,0.1,0.1,0.1c0.1,0,0.1,0,0.2,0.1c0.1,0,0.1,0,0.2,0
	c0.1,0,0.1,0,0.2,0c0.1,0,0.3,0,0.4,0c0.1,0,0.2-0.1,0.3-0.1c0,0,0.1-0.1,0.1-0.1c0,0,0.1-0.1,0.1-0.1c0,0,0-0.1,0-0.2
	C98,28.7,98,28.6,98,28.5z"/>
<path fill="#232222" d="M101.7,28.5c0,0.2,0,0.3-0.1,0.4c-0.1,0.1-0.2,0.2-0.3,0.3c-0.1,0-0.2,0.1-0.2,0.1c-0.1,0-0.2,0.1-0.3,0.1
	c-0.1,0-0.2,0-0.3,0c-0.1,0-0.2,0-0.3,0h-0.9v-1.9h0.7c0.1,0,0.3,0,0.4,0c0.1,0,0.2,0,0.3,0c0.1,0,0.2,0,0.2,0c0.1,0,0.2,0,0.2,0.1
	c0.2,0.1,0.4,0.2,0.5,0.3C101.6,28.1,101.7,28.3,101.7,28.5z M101.2,28.5c0-0.1,0-0.3-0.1-0.4c0-0.1-0.1-0.2-0.2-0.3
	c-0.1,0-0.1-0.1-0.2-0.1c-0.1,0-0.1,0-0.2-0.1c-0.1,0-0.1,0-0.2,0c-0.1,0-0.2,0-0.3,0h-0.4v1.5h0.4c0.1,0,0.2,0,0.3,0
	c0.1,0,0.2,0,0.2,0c0.1,0,0.1,0,0.2-0.1c0.1,0,0.1-0.1,0.2-0.1c0.1-0.1,0.1-0.2,0.2-0.2C101.2,28.7,101.2,28.6,101.2,28.5z"/>
<path fill="#232222" d="M102.4,29.4v-1.9h0.4v1.9H102.4z"/>
<path fill="#232222" d="M106,28.9c0,0.1,0,0.2-0.1,0.3c-0.1,0.1-0.2,0.1-0.4,0.2c-0.1,0-0.2,0.1-0.4,0.1c-0.1,0-0.3,0-0.4,0
	c-0.2,0-0.4,0-0.6,0c-0.2,0-0.4-0.1-0.5-0.1l0.2-0.2c0.1,0.1,0.3,0.1,0.5,0.1c0.2,0,0.3,0,0.5,0c0.1,0,0.2,0,0.3,0
	c0.1,0,0.2,0,0.2-0.1c0.2-0.1,0.3-0.2,0.3-0.3c0-0.2-0.2-0.3-0.6-0.4l-0.4-0.1c-0.2,0-0.3-0.1-0.4-0.1c-0.1,0-0.2-0.1-0.2-0.1
	c-0.1-0.1-0.2-0.2-0.2-0.3c0-0.1,0-0.2,0.1-0.2c0.1-0.1,0.1-0.1,0.2-0.2c0.1,0,0.2-0.1,0.4-0.1c0.1,0,0.3,0,0.5,0
	c0.4,0,0.7,0.1,1.1,0.2l-0.2,0.2c-0.1,0-0.2-0.1-0.2-0.1c-0.1,0-0.1,0-0.2,0c-0.1,0-0.1,0-0.2,0c-0.1,0-0.1,0-0.2,0
	c-0.2,0-0.4,0-0.5,0.1c-0.1,0.1-0.2,0.1-0.2,0.2c0,0.1,0,0.1,0.1,0.2c0.1,0,0.2,0.1,0.4,0.1l0.4,0.1c0.2,0,0.3,0.1,0.4,0.1
	c0.1,0,0.2,0.1,0.2,0.1c0.1,0,0.1,0.1,0.2,0.2C106,28.7,106,28.8,106,28.9z"/>
<path fill="#232222" d="M108.6,27.7h-1v1.7h-0.4v-1.7h-0.9v-0.2h2.3L108.6,27.7z"/>
<path fill="#232222" d="M112,29.4c-0.2,0-0.3,0-0.5,0c-0.2,0-0.4,0-0.6-0.1c-0.2,0-0.3-0.1-0.5-0.2c-0.1-0.1-0.3-0.2-0.3-0.3
	c-0.1-0.1-0.1-0.3-0.1-0.4c0-0.1,0-0.3,0.1-0.4c0.1-0.1,0.2-0.2,0.3-0.3c0.1-0.1,0.3-0.2,0.5-0.2c0.2,0,0.4-0.1,0.6-0.1
	c0.2,0,0.3,0,0.5,0c0.2,0,0.3,0.1,0.4,0.1l-0.2,0.1c-0.1,0-0.2-0.1-0.3-0.1c-0.1,0-0.2,0-0.4,0c-0.2,0-0.4,0-0.5,0.1
	c-0.1,0.1-0.3,0.1-0.3,0.2c-0.1,0.1-0.1,0.1-0.1,0.2c0,0.1,0,0.2,0,0.3c0,0.1,0,0.2,0,0.2c0,0.1,0,0.1,0.1,0.2
	c0.1,0.1,0.2,0.2,0.4,0.3c0.2,0.1,0.4,0.1,0.6,0.1c0.1,0,0.2,0,0.4,0c0.1,0,0.2-0.1,0.3-0.1l0.2,0.1C112.3,29.3,112.1,29.4,112,29.4
	z"/>
<path fill="#232222" d="M114.9,29.4v-0.9h-1.5v0.9h-0.4v-1.9h0.4v0.8h1.5v-0.8h0.4v1.9H114.9z"/>
<path fill="#232222" d="M118.5,29.1c0,0.1-0.1,0.1-0.2,0.2c-0.1,0.1-0.2,0.1-0.4,0.1c-0.1,0-0.3,0-0.5,0c-0.3,0-0.5,0-0.7-0.1
	c-0.2,0-0.3-0.1-0.4-0.2c0,0-0.1-0.1-0.1-0.1c0-0.1,0-0.1,0-0.1v-1.3h0.4v1.3c0,0,0,0.1,0,0.1c0,0.1,0,0.1,0.1,0.1c0,0,0,0,0.1,0.1
	c0,0,0.1,0,0.1,0.1c0.1,0,0.1,0,0.2,0c0.1,0,0.2,0,0.3,0c0.1,0,0.3,0,0.4,0c0.1,0,0.2,0,0.2-0.1c0.1,0,0.1-0.1,0.1-0.1
	c0,0,0-0.1,0-0.2v-1.3h0.4v1.3C118.6,29,118.6,29,118.5,29.1z"/>
<path fill="#232222" d="M121.2,29.4c0,0-0.1-0.1-0.1-0.1c-0.1,0-0.1-0.1-0.2-0.2c-0.1-0.1-0.2-0.1-0.3-0.2c-0.1-0.1-0.2-0.1-0.3-0.2
	c-0.1,0-0.1-0.1-0.2-0.1c-0.1,0-0.1,0-0.2,0v0.8h-0.4l0-1.9h0.8c0.1,0,0.2,0,0.3,0c0.1,0,0.2,0,0.2,0c0.1,0,0.1,0,0.2,0
	c0.1,0,0.1,0,0.1,0c0,0,0.1,0,0.1,0.1c0,0,0.1,0.1,0.1,0.1c0,0,0.1,0.1,0.1,0.1c0,0,0,0.1,0,0.1c0,0.1,0,0.1-0.1,0.2
	c0,0.1-0.1,0.1-0.2,0.2c-0.1,0-0.2,0.1-0.3,0.1c-0.1,0-0.2,0-0.4,0h-0.1c0.1,0,0.2,0.1,0.2,0.1c0.1,0,0.1,0.1,0.1,0.1
	c0,0,0.1,0.1,0.1,0.1c0.1,0,0.1,0.1,0.2,0.2c0.1,0.1,0.1,0.1,0.2,0.2c0.1,0.1,0.1,0.1,0.2,0.1c0,0,0.1,0.1,0.1,0.1H121.2z M121.1,28
	c0-0.1,0-0.1-0.1-0.2c-0.1-0.1-0.1-0.1-0.2-0.1c-0.1,0-0.1,0-0.2,0c-0.1,0-0.2,0-0.2,0h-0.4v0.7h0.4c0.2,0,0.3,0,0.4,0
	c0.1,0,0.2,0,0.3-0.1c0.1,0,0.1-0.1,0.1-0.1C121.1,28.1,121.1,28.1,121.1,28z"/>
<path fill="#232222" d="M124.1,29.4c-0.2,0-0.3,0-0.5,0c-0.2,0-0.4,0-0.6-0.1c-0.2,0-0.3-0.1-0.5-0.2c-0.2-0.1-0.3-0.2-0.3-0.3
	c-0.1-0.1-0.1-0.3-0.1-0.4c0-0.1,0-0.3,0.1-0.4c0.1-0.1,0.2-0.2,0.3-0.3c0.1-0.1,0.3-0.2,0.5-0.2c0.2,0,0.4-0.1,0.6-0.1
	c0.2,0,0.3,0,0.5,0c0.1,0,0.3,0.1,0.4,0.1l-0.2,0.1c-0.1,0-0.2-0.1-0.3-0.1c-0.1,0-0.2,0-0.4,0c-0.2,0-0.4,0-0.5,0.1
	c-0.1,0.1-0.3,0.1-0.3,0.2c-0.1,0.1-0.1,0.1-0.1,0.2c0,0.1,0,0.2,0,0.3c0,0.1,0,0.2,0,0.2c0,0.1,0,0.1,0.1,0.2
	c0.1,0.1,0.2,0.2,0.4,0.3c0.2,0.1,0.4,0.1,0.6,0.1c0.1,0,0.2,0,0.4,0c0.1,0,0.2-0.1,0.3-0.1l0.2,0.1
	C124.4,29.3,124.3,29.4,124.1,29.4z"/>
<path fill="#232222" d="M127.1,29.4v-0.9h-1.5v0.9h-0.4v-1.9h0.4v0.8h1.5v-0.8h0.4v1.9H127.1z"/>
<g>
	<path fill="#232222" d="M57.3,18.1c0,0.2-0.1,0.5-0.2,0.6c-0.2,0.2-0.4,0.3-0.6,0.3h-7.5c-0.3,0-0.4-0.1-0.6-0.2
		c-0.1-0.2-0.2-0.4-0.2-0.7V12c0-0.5-0.1-0.8-0.4-0.9c-0.3-0.2-0.4-0.2-0.4-0.2V10h10.1V18.1z M54.7,11.9h-4.1v5.2h4.1V11.9z
		 M53.8,29.4c-0.2,0-0.4-0.1-0.6-0.2c-0.2-0.1-0.3-0.4-0.3-0.7v-4.3c0-0.5-0.2-0.9-0.5-1.1c-0.3-0.2-0.5-0.2-0.6-0.3l0.4-0.8
		l3.5,0.3c0,0,0,0.2-0.1,0.5c0,0.3-0.1,0.7-0.1,1v3.5h8.2v2H53.8z M63.1,15.7v6.2l-0.2,2.3h-2.3V10.7c0-0.4-0.1-0.8-0.4-1.1
		c-0.2-0.3-0.5-0.6-0.9-0.8l-1.2-0.7l0.5-0.7l5,0.7c0,0-0.1,0.3-0.3,0.9c-0.2,0.5-0.3,1.1-0.3,1.8v3.1h3.6v2H63.1z"/>
	<path fill="#232222" d="M84.1,16v5.4l-0.3,2.8h-2.2v-5.4c-1.5,0.5-3.2,0.9-5.2,1.3c-2,0.4-3.7,0.5-5.2,0.5c-0.3,0-0.5-0.1-0.7-0.2
		c-0.1-0.1-0.2-0.3-0.2-0.6v-8.1c0-0.5-0.2-0.8-0.6-1c-0.4-0.2-0.6-0.3-0.7-0.3l0.4-0.8l3.7,0.4c0,0-0.1,0.2-0.1,0.6
		c-0.1,0.4-0.1,0.8-0.1,1.2v6.3h0.8c1.4,0,2.7-0.1,4-0.3c1.3-0.2,2.6-0.5,3.8-0.8v-6.3c0-0.5-0.1-0.8-0.4-1.1
		C81,9.3,80.7,9,80.3,8.8l-1.3-0.7l0.5-0.7L84.7,8c0,0-0.1,0.3-0.3,0.9c-0.2,0.5-0.3,1.1-0.3,1.8V14h3.6v2H84.1z"/>
	<path fill="#232222" d="M89.7,23.5v-2h4.9V17c0-0.6-0.1-1-0.4-1.2c-0.3-0.2-0.4-0.3-0.5-0.3l0.3-0.8l3.4,0.3c0,0,0,0.2,0,0.6
		c0,0.4,0,0.7,0,1v4.9h2.1v-5.1c0-0.5-0.1-0.8-0.3-1c-0.2-0.2-0.3-0.2-0.4-0.3l0.3-0.7l3.1,0.2c0,0,0,0.2-0.1,0.6c0,0.4,0,0.7,0,1
		v5.3h6.4v2H89.7z M106.1,9.1c0,0,0,0.3-0.1,0.8c0,0.5-0.1,0.9-0.1,1.2c0,0.9-0.1,2.2-0.2,3.8c-0.2,1.6-0.4,3.1-0.7,4.3h-2.4
		c0.2-1.4,0.4-2.8,0.4-4.1c0.1-1.3,0.1-2.3,0.1-3v-1H92.8v-2H106.1z"/>
	<path fill="#232222" d="M128.2,8c0,0-0.1,0.3-0.3,0.9c-0.2,0.5-0.3,1.1-0.3,1.8v10.8l-0.3,2.8H125v-2.2c-1.6,0.3-3.3,0.4-5.2,0.6
		c-1.9,0.1-3.6,0.2-5.1,0.2h-3.6v-2.1h4.9v-1.5c-0.9-0.2-1.7-0.7-2.4-1.4c-0.7-0.7-1-1.5-1-2.5c0-0.7,0.2-1.4,0.6-1.9
		c0.4-0.5,0.9-1,1.4-1.3h-3v-1.9h4.3V9.5c0-0.4-0.1-0.7-0.4-0.8c-0.3-0.2-0.5-0.3-0.5-0.3l0.4-0.7l3.7,0.3c0,0-0.1,0.2-0.1,0.5
		C119,8.7,119,9,119,9.2v1.1h4.1v1.9h-2.9c0.6,0.3,1,0.8,1.4,1.3c0.4,0.5,0.6,1.2,0.6,1.9c0,1-0.3,1.8-0.9,2.5
		c-0.6,0.7-1.4,1.1-2.3,1.4v1.4c1,0,2-0.1,3.1-0.2c1-0.1,2-0.2,3-0.4v-9.4c0-0.5-0.1-0.8-0.3-1.1c-0.2-0.3-0.5-0.6-0.9-0.8l-1.2-0.7
		l0.4-0.7L128.2,8z M119,16.9c0.4-0.4,0.6-0.9,0.6-1.5c0-0.6-0.2-1.1-0.6-1.6c-0.4-0.5-0.9-0.7-1.5-0.7c-0.6,0-1.1,0.2-1.5,0.7
		c-0.4,0.5-0.6,1-0.6,1.6c0,0.6,0.2,1.1,0.6,1.5c0.4,0.4,0.9,0.6,1.5,0.6C118,17.5,118.6,17.3,119,16.9z"/>
</g>
<g>
	<path fill="#00A8DE" d="M20.1,15.7L20.1,15.7c-0.1,0-1.5,0.3-3.8,1c0,0.1,0,0.2-0.1,0.3l0,0.1l0,0c0,0.1-2.3,6.9-2.4,17.2
		c0.1,0,0.1-0.1,0.2,0c0,0,0,0,0,0c0.5-0.1,0.7,0.3,1.2,0.3c0.2,0.1,0.3,0.2,0.5,0.2c0,0,0.2,0,0.2-0.1c0.1,0,0.2-0.1,0.3-0.1
		c0.1,0,0.2,0,0.3,0.1c0.3,0.1,0.5,0,0.8,0c0.1,0.1,0.4-0.1,0.6-0.1c0.2-0.1,0.4-0.3,0.7-0.2c0.1-0.1,0.3,0,0.4,0
		c0.3-0.1,0.7-0.3,1-0.5c0.2-0.1,0.5-0.2,0.7-0.3c0.2,0,0.1,0,0.2,0c0.4-0.1,0.9-0.2,1.3-0.3c0.1,0.1,0.3-0.1,0.4,0
		c0.2-0.1,0.5-0.2,0.7-0.2c0.1,0,0.2,0,0.2-0.1c0.2,0,0.2-0.3,0.4-0.3c0.3-0.1,0.6-0.2,0.8-0.5c0.4-0.1,0.9-0.3,1.3-0.3
		c0.3,0.1,0.5-0.1,0.8-0.2c0.3-0.1,0.6-0.4,0.8-0.5c0.3-0.1,0.5-0.3,0.7-0.5c0.4-0.3,0.8-0.6,1.2-0.8c0.1-0.3,0.5-0.3,0.7-0.5
		c0.4-0.3,1-0.4,1.4-0.5c0.2-0.1,0.4-0.1,0.5-0.3c0.6-0.3,0.6-0.9,1.2-1.1c0.1-0.2,0.5-0.4,0.6-0.6c0.3-0.3,0.5-0.6,0.8-0.9
		c0.2-0.3,0.4-0.6,0.7-0.8c0.3-0.5,0.9-0.6,1.2-1c0.4-0.2,0.3-0.7,0.6-0.9c-0.1-0.1,0.1-0.3,0.1-0.4c0-0.3,0.4-0.7,0.4-1
		c0.2-0.2,0-0.4,0.3-0.6c0.1-0.4,0.6-0.7,0.6-1.1c0.3-0.3,0.2-0.5,0.4-0.8c0-0.2,0.1-0.4,0.1-0.6c0.1-0.1,0-0.2,0.1-0.4
		c0-0.3,0-0.6,0-0.8c0.1-0.1,0-0.2,0.1-0.3c0.1-0.4,0.3-0.7,0.4-1.1c-0.1-0.3,0.2-0.6,0.1-0.8c0-0.1-0.1,0,0-0.1
		c-0.1-0.5,0.2-0.9,0.3-1.4c0,0,0.1-0.1,0.1-0.1c0.2-0.3,0-0.5,0.1-0.8c0-0.1,0.1-0.2,0.1-0.3C37.4,12.7,29.3,13.3,20.1,15.7
		L20.1,15.7z"/>
	<path fill="#EA0E88" d="M11.2,18.6c-3.1,1.2-6.8,2.9-10.7,5.3c0.1,0.2,0.2,0.4,0.2,0.6c0,0,0,0,0,0c0.3,0.3,0.1,0.8,0.4,1.1
		c0,0.1,0.1,0.2,0.1,0.2c0.1,0.1,0.1,0.3,0.1,0.5c0,0.2,0.1,0.3,0.1,0.5c0.4,0.3,0.3,0.9,0.8,1.1c0.3,0.4,0.1,1,0.7,1.2
		c0.1,0.2,0.3,0.3,0.4,0.6c0.1,0,0.1,0.2,0.3,0.2c0.2,0.2,0.4,0.4,0.5,0.6l0.3,0c0,0.1,0.2,0.3,0.1,0.4c0.3,0.1,0.5,0.3,0.8,0.5
		c0.1,0.1,0.1,0.3-0.1,0.5c0.1,0.1,0.1,0.4,0.2,0.4c0.3,0.4,0.8,0.6,1.2,0.8C6.7,33,6.9,33,6.9,33.2c0.2,0.1,0.3,0.2,0.6,0.3
		c0.4,0.2,0.9,0.5,1.5,0.4c0.1,0,0.2,0.1,0.2,0.1c0.3,0,0.7,0.1,1.1,0.1C10,30.4,9.9,24.9,11.2,18.6z"/>
	<path fill="#A1C747" d="M19,11c0.4-0.1,9.3-2.7,20.3-1.7c0-0.2-0.1-0.3-0.2-0.4c0-0.3-0.3-0.6,0-0.9c-0.1-0.2,0.1-0.4,0-0.5
		c0.2-0.3,0-0.5-0.1-0.7c0-0.3-0.4-0.4-0.4-0.7c-0.3-0.2-0.4-0.6-0.8-0.7c-0.4-0.3-0.8-0.6-1.1-0.9c-0.2,0-0.2-0.2-0.4-0.1
		c-0.1-0.1-0.3-0.1-0.4-0.1c-0.1-0.1-0.1-0.3-0.3-0.2c-0.1-0.2-0.2-0.2-0.4-0.3c0-0.1-0.1-0.1-0.1-0.1C35,3.2,34.4,3.3,34.3,3
		C34.2,3,34,3,34,2.9c-0.2,0-0.3-0.1-0.6-0.2c-0.7-0.3-0.2,0.1-0.9-0.3C32.2,2.6,32,2.1,31.9,2c0.1-0.2-0.4-0.1-0.5-0.3
		c-0.3-0.2-0.7-0.3-0.9-0.5c-0.4-0.1-0.6-0.3-0.9-0.4c-0.1-0.2-0.4-0.2-0.5-0.3c-0.3-0.2-0.7-0.2-1.2-0.1c-0.1,0-0.2,0-0.3,0.1
		c-0.2,0.1-0.2-0.1-0.4-0.1c-0.1-0.2-0.4,0-0.6-0.1c-0.2,0.1-0.3-0.1-0.6,0c-0.5-0.1-1-0.2-1.5-0.2c-0.1,0-0.1,0.1-0.2,0.1
		c-0.2,0-0.3,0-0.5,0c-0.3,0.2-0.4,0-0.7,0.1c-0.2-0.1-0.4-0.1-0.6-0.1c-1.1,2.1-3,6.1-4.7,11.2C18.3,11.3,18.7,11.1,19,11z"/>
	<path fill="#F5B721" d="M18.2,1c-0.2,0.1-0.4,0.1-0.5,0.1c-0.1,0.2-0.5,0.2-0.7,0.3c-0.3,0.1-0.6,0.3-0.9,0.4
		c-0.2,0-0.5,0.1-0.7,0.2c-0.1,0-0.2,0-0.3,0l-0.4,0.2c-0.4,0.1-0.7,0-1,0.3c-0.3,0-0.6,0.2-0.7,0.4c-0.3,0.1-0.5,0.4-0.8,0.4
		c-0.2,0.2-0.6,0.3-0.8,0.5C11,4,10.7,4.3,10.4,4.5c-0.3,0.4-0.8,0.3-1,0.7C8.9,5.5,8.5,5.7,8.2,6.1c-0.3,0-0.4,0.3-0.7,0.4
		C7.4,6.8,7.1,6.9,6.9,7.1C6.8,7.3,6.6,7.4,6.4,7.6C6.2,7.7,6.1,7.9,5.9,8c0,0.2-0.3,0.2-0.3,0.4c0,0.2-0.3,0.4-0.3,0.5
		C5,9,5,9.3,4.8,9.6C4.8,9.7,4.6,9.7,4.6,9.9c-0.2,0.1-0.1,0.4-0.3,0.6c-0.3,0.3-0.5,0.6-0.9,0.9c-0.1,0.1,0,0.2-0.1,0.3
		c-0.1,0.3-0.2,0.6-0.4,0.9c-0.2,0.2-0.5,0.4-0.6,0.6C2,13.3,2,13.7,1.7,14c-0.1,0.3-0.4,0.6-0.4,0.9C1,15.1,1.1,15.3,1,15.5
		c-0.1,0.1,0,0.3-0.1,0.4c0,0.1,0,0.3-0.1,0.4c0,0.1,0,0.3,0,0.4C0.8,17,1,17,0.9,17.2c0.3,0.4-0.3,0.8-0.4,1.1
		C0.2,18.5,0,18.8,0,19.1c-0.1,0.2,0.2,0.3,0,0.5c0.1,0.2-0.1,0.3,0,0.4c0,0,0,0,0,0c2.7-1.9,6.9-4.6,12.4-6.8
		C13.4,10.6,15.1,5.9,18.2,1z"/>
	<path fill="#FFFFFF" d="M39.9,11.3c0-0.1,0.1-0.2,0-0.2c0,0,0,0,0,0c0-0.2,0-0.5-0.2-0.6c0-0.3-0.2-0.4-0.3-0.7c0-0.1,0-0.2,0-0.3
		c0,0,0-0.1,0-0.1c-11-1-19.9,1.6-20.3,1.7c-0.4,0.1-0.7,0.2-1.1,0.3c1.7-5.1,3.6-9.1,4.7-11.2c-0.1,0-0.3,0.1-0.4,0.1
		c-0.2-0.2-0.4,0.2-0.6,0c-0.5,0.1-1,0.3-1.5,0.5l-0.1,0c-0.4,0.2-0.8,0.1-1.2,0.2c-0.2,0-0.4,0-0.6,0.1c-3.1,4.9-4.8,9.6-5.7,12.3
		C7,15.5,2.7,18.2,0.1,20.1c0.1,0.1,0.2,0.2,0.3,0.3c0.4,0.2,0,0.6,0.1,0.9c-0.2,0.1,0.1,0,0,0.1c-0.7,0.4-0.1,0.9-0.5,1.4
		c0,0.1-0.1,0.3,0.1,0.4c0,0.1,0,0.1,0,0.2c0.1,0.2,0.1,0.3,0.2,0.5c3.9-2.3,7.6-4,10.7-5.3C9.9,24.9,10,30.4,10.3,34
		c0.1,0,0.1,0,0.2,0c0.3,0.1,0.4,0.1,0.7,0.2c0.4,0.1,0.7,0.3,1.1,0.1c0.5,0,1-0.3,1.4,0c0,0,0.1,0,0.1,0
		c0.1-10.3,2.4-17.1,2.4-17.2l0,0l0-0.1c0-0.1,0-0.2,0.1-0.3c2.3-0.7,3.7-1,3.7-1l0.1,0l0.1,0c9.1-2.5,17.2-3,20.3-3.1
		c0-0.1,0-0.3-0.1-0.4C40.3,11.8,40,11.7,39.9,11.3z"/>
</g>
</svg>
